<?xml version="1.0" standalone="no"?>
<!DOCTYPE svg PUBLIC "-//W3C//DTD SVG 20010904//EN"
 "http://www.w3.org/TR/2001/REC-SVG-20010904/DTD/svg10.dtd">
<svg version="1.0" xmlns="http://www.w3.org/2000/svg"
 width="260.000000pt" height="260.000000pt" viewBox="0 0 260.000000 260.000000"
 preserveAspectRatio="xMidYMid meet">
<metadata>
Created by potrace 1.14, written by Peter Selinger 2001-2017
</metadata>
<g transform="translate(0.000000,260.000000) scale(0.100000,-0.100000)"
fill="#000000" stroke="none">
<path d="M0 1300 l0 -1300 1300 0 1300 0 0 1300 0 1300 -1300 0 -1300 0 0
-1300z m1840 687 c-198 -328 -360 -598 -360 -601 0 -3 133 -7 295 -8 l294 -3
-837 -682 c-460 -375 -838 -680 -840 -679 -1 2 158 268 354 591 196 324 358
595 361 602 4 10 -53 13 -283 15 l-287 3 829 682 c456 375 830 680 832 679 1
-2 -160 -271 -358 -599z"/>
</g>
</svg>
