<?xml version="1.0" encoding="utf-8"?>
<!-- Generator: Adobe Illustrator 23.0.1, SVG Export Plug-In . SVG Version: 6.00 Build 0)  -->
<svg version="1.1" id="Layer_1" xmlns="http://www.w3.org/2000/svg" xmlns:xlink="http://www.w3.org/1999/xlink" x="0px" y="0px"
	 viewBox="0 0 671.9 358.2" style="enable-background:new 0 0 671.9 358.2;" xml:space="preserve">
<style type="text/css">
	.st0{fill:#FFFFFF;}
	.st1{enable-background:new    ;}
</style>
<title>sorunme-white</title>
<g id="Layer_1_copy_4">
	<g>
		<path class="st0" d="M208.1,139.2c19.6,0,38.1,9.6,49.7,25.6c19.5,27.4,13.2,65.6-14.2,85.1c-10.4,7.4-22.6,11.3-35.4,11.3
			c-19.1,0-37.1-9-48.6-24.1l50.9-41.5l10.9-8.9l4.3-3.5h-5.6h-14l-56.6-0.1C157.1,157.1,180.9,139.2,208.1,139.2 M208.1,137.2
			c-29,0-54.2,19.8-61.2,47.9l59.2,0.1h14l-10.9,8.9l-52.4,42.7c12.3,17.2,31.7,26.4,51.4,26.4c12.7,0,25.4-3.8,36.5-11.7
			c28.3-20.2,34.9-59.6,14.7-87.9C247.5,147.1,228.4,137.2,208.1,137.2L208.1,137.2z"/>
	</g>
	<g>
		<path class="st0" d="M210.1,55.4l-81.5,135l-1.8,3l3.5,0l66.1,0.1L7.7,347.4l81.6-135l1.8-3l-3.5,0l-64.3-0.2L210.1,55.4
			 M217.8,46.4L17.7,211.1l69.9,0.2L0,356.2l202-164.7l-71.7-0.1L217.8,46.4L217.8,46.4z"/>
	</g>
	<g class="st1">
		<g>
			<path class="st0" d="M333.6,92.4c3.5,0.1,7.5,0.5,11.8,1.1V137c-2.3-1-4.5-1.5-6.6-1.5c-6.6,0-14.4,3.6-14.4,20.9v55.3h-41.3v-64
				c0-16.8,4.6-30.3,13.8-40.4C306.1,97.3,318.1,92.4,333.6,92.4 M333.6,90.4c-16,0-28.7,5.2-38.2,15.6s-14.3,24.3-14.3,41.7v66
				h45.3v-57.3c0-12.6,4.2-18.9,12.4-18.9c2.6,0,5.5,0.9,8.6,2.7V91.8C341.8,90.9,337.2,90.5,333.6,90.4L333.6,90.4z"/>
		</g>
	</g>
	<g>
		<path class="st0" d="M464.3,91.8c16.8,0,29.9,5.9,40.1,18.1c7.8,9.5,11.7,22.8,11.6,39.5v61.7h-41.3v-66.2
			c0-10.8-6.6-12.4-10.6-12.4c-6.1,0-9.8,3.7-10.4,10.4l0,0.1v0.1v65.8c0,0.5,0,1,0,1.5c0,0.2,0,0.5,0,0.7h0l-0.1,1.9
			c-0.6,12.9-5.9,25-14.9,34.2c-10.1,10.5-22.1,15.6-36.8,15.6c-16.7,0-29.7-5.9-40-18.1c-7.8-9.4-11.7-22.7-11.7-39.4v-61.7h41.3
			v66.3c0,10.7,6.6,12.3,10.6,12.3c6.1,0,9.8-3.7,10.4-10.3l0-0.1v-0.1v-65.8c0-0.5,0-1,0-1.6c0-0.2,0-0.5,0-0.7h0l0.1-1.9
			c0.6-13,5.9-25.1,14.9-34.3C437.6,96.9,449.7,91.8,464.3,91.8 M464.3,89.8c-15.1,0-27.8,5.4-38.2,16.2
			c-9.4,9.5-14.9,22.2-15.5,35.6h-0.1v1c0,1.1-0.1,2.2-0.1,3.3v65.8c-0.5,5.6-3.3,8.5-8.4,8.5c-5.7,0-8.6-3.4-8.6-10.3v-68.3h-45.3
			v63.7c0,17.4,4.1,30.9,12.2,40.7c10.5,12.5,24.3,18.8,41.5,18.8c15.1,0,27.8-5.4,38.2-16.2c9.4-9.5,14.9-22.1,15.5-35.5h0.1v-1
			c0-1.1,0.1-2.1,0.1-3.2v-65.8c0.5-5.7,3.3-8.6,8.4-8.6c5.7,0,8.6,3.5,8.6,10.4v68.2H518v-63.7c0.1-17.4-4-31-12.1-40.8
			C495.5,96.1,481.7,89.8,464.3,89.8L464.3,89.8z"/>
	</g>
	<g class="st1">
		<g>
			<path class="st0" d="M534.7,201.7c1.5,0,2.8,0.6,4,1.7c1.2,1.2,1.7,2.5,1.7,4s-0.6,2.8-1.7,4c-1.2,1.2-2.5,1.7-4,1.7
				s-2.8-0.6-4-1.7l0,0l0,0c-1.1-1.1-1.7-2.3-1.7-3.9c0-1.6,0.5-2.9,1.7-3.9l0,0l0,0C531.9,202.3,533.2,201.7,534.7,201.7
				 M534.7,199.7c-2.1,0-3.9,0.8-5.4,2.3c-1.6,1.5-2.3,3.3-2.3,5.4s0.7,3.9,2.3,5.4c1.5,1.5,3.3,2.3,5.4,2.3s3.9-0.8,5.4-2.3
				s2.3-3.3,2.3-5.4c0-2.1-0.8-3.9-2.3-5.4S536.8,199.7,534.7,199.7L534.7,199.7z"/>
		</g>
		<g>
			<path class="st0" d="M605.4,174.2c3.2,0,5.8,1.3,8,3.9c2.3,2.8,3.4,6.1,3.4,10.1v24.1h-8.3v-20.8c0-2.8-0.8-5.2-2.4-7
				c-1.6-2-3.7-3-6-3c-2.6,0-4.9,1.1-7,3.2l0,0l0,0c-1.9,2.2-2.8,4.7-2.8,7.6v20h-8.2v-20.3c0-2.9-0.8-5.3-2.3-7.3l0,0l0,0
				c-1.7-2.1-3.8-3.2-6.2-3.2c-2.7,0-5,1.1-7,3.4l0,0l0,0c-1.8,2.2-2.8,4.9-2.8,7.8v19.6h-8.4v-37.2l8.8,0v4.6v3.7l3.1-2.1
				c0.7-0.5,1.6-1.3,2.8-2.4c1-1,2-1.8,3-2.6c1-0.7,2-1.2,3.1-1.5l0,0l0,0c1.2-0.4,2.3-0.6,3.3-0.6c1.5,0,3.1,0.6,5.1,1.7
				c1.8,1,3.3,3.1,4.7,6.2l1.3,3l2.1-2.6c2.4-3,4.7-5.2,6.9-6.5C601.7,174.8,603.6,174.2,605.4,174.2 M605.4,172.2
				c-2.1,0-4.4,0.7-6.8,2.1s-4.9,3.7-7.5,7c-1.5-3.4-3.3-5.8-5.5-7.1s-4.2-2-6.1-2c-1.1,0-2.4,0.2-3.9,0.7c-1.4,0.4-2.7,1.1-3.7,1.8
				c-1,0.8-2.1,1.7-3.2,2.8s-1.9,1.8-2.5,2.2v-6.6l-12.8,0v41.2h12.4v-21.6c0-2.5,0.8-4.7,2.3-6.5c1.6-1.8,3.4-2.7,5.5-2.7
				c1.8,0,3.3,0.9,4.6,2.5c1.3,1.7,1.9,3.7,1.9,6.1v22.3h12.2v-22c0-2.5,0.8-4.5,2.3-6.3c1.6-1.7,3.4-2.6,5.5-2.6
				c1.8,0,3.3,0.8,4.5,2.3c1.3,1.5,1.9,3.4,1.9,5.7v22.8h12.3v-26.1c0-4.5-1.3-8.3-3.9-11.4S609.1,172.2,605.4,172.2L605.4,172.2z
				 M566.2,173.1L566.2,173.1L566.2,173.1L566.2,173.1z"/>
		</g>
		<g>
			<path class="st0" d="M648.6,174.5c5.4,0,9.8,1.9,13.4,5.8c3.6,3.9,5.4,8.6,5.5,14.4H640h-2.2l0.2,2.2c0.2,3.2,1.3,5.8,3.1,7.7
				c2,2.1,4.3,3.1,7,3.1c3.9,0,7.2-1.6,9.7-4.7l7.4,2.4c-3.8,5.3-9.2,7.9-16.4,7.9c-5.9,0-10.5-1.7-14.1-5.3
				c-3.4-3.5-5.1-8.3-5.1-14.4c0-5.5,1.8-10,5.5-13.6C638.7,176.3,643.1,174.5,648.6,174.5 M637.7,190.4h2.3h16.6h2.5l-0.5-2.4
				c-1.7-8.1-6.9-9.3-9.9-9.3c-2.8,0-5.1,0.8-7.2,2.4l-0.1,0l-0.1,0c-1.9,1.8-3.1,4.2-3.4,6.9L637.7,190.4 M648.6,172.5
				c-5.9,0-10.9,2-14.9,6.1c-4.1,4-6.1,9-6.1,15c0,6.6,1.9,11.9,5.7,15.8c3.9,3.9,9,5.9,15.5,5.9c8.8,0,15.3-3.7,19.5-11l-11.3-3.7
				c-2.2,3.4-5.1,5.1-8.9,5.1c-2.1,0-3.9-0.8-5.5-2.5s-2.4-3.9-2.6-6.5h29.3h0.2v-1.8c0-6.4-2-11.7-6-16
				C659.5,174.6,654.5,172.5,648.6,172.5L648.6,172.5z M640,188.4c0.3-2.4,1.3-4.3,2.8-5.7c1.6-1.3,3.5-2,5.9-2
				c4.1,0,6.8,2.6,7.9,7.7H640L640,188.4z"/>
		</g>
	</g>
</g>
</svg>
